#!OML:ASF H:\Terrain\Patient Classification 1\Terrain2\Thursday\justin.ASF
:FULLY-SPECIFIED
:DEGREES
2636
root 20.1591 23.4427 10.728 -3.48161 7.15601 1.01121
lowerback 7.21593 -1.17864 -3.91907
upperback 4.69982 -1.78192 2.61684
thorax 1.03198 -1.01722 5.02553
lowerneck -10.4745 -1.74144 -10.1879
upperneck 40.1693 -1.16674 3.63229
head 16.2444 -1.51483 3.2544
rclavicle 8.74653e-015 -7.95139e-016
rhumerus -37.9679 -16.0931 -74.66
rradius 24.5068
rwrist -4.53826
rhand -20.7805 12.3477
rfingers 7.12502
rthumb 5.58629 -17.5587
lclavicle 8.74653e-015 -7.95139e-016
lhumerus -37.2207 7.11025 83.4079
lradius 34.9583
lwrist 4.87368
lhand -18.1197 20.8105
lfingers 7.12502
lthumb 8.15482 50.6332
rfemur -35.4303 -10.8818 16.4978
rtibia 35.6703
rfoot 10.2131 -6.2265
rtoes 4.13479
lfemur 11.1883 -1.271 -21.9996
ltibia 21.2132
lfoot -18.5203 -18.2834
ltoes 19.7157
2637
root 20.1384 23.4419 10.8189 -3.33986 7.4428 0.648374
lowerback 6.99437 -1.18511 -3.52057
upperback 4.69303 -1.7621 2.72405
thorax 1.13398 -1.00182 4.90374
lowerneck -10.5997 -1.85033 -9.99044
upperneck 40.0301 -1.30277 3.46487
head 16.2112 -1.55693 3.11888
rclavicle -1.88845e-014 1.27222e-014
rhumerus -37.9124 -16.442 -74.5654
rradius 24.2952
rwrist -4.33704
rhand -20.5968 12.3179
rfingers 7.12502
rthumb 5.7636 -17.5837
lclavicle -1.88845e-014 1.27222e-014
lhumerus -36.9366 7.05981 83.532
lradius 34.5115
lwrist 5.02702
lhand -18.5339 20.3288
lfingers 7.12502
lthumb 7.755 50.1666
rfemur -35.255 -11.1674 17.0287
rtibia 35.573
rfoot 10.3238 -6.48327
rtoes 5.19912
lfemur 11.3093 -1.40065 -21.4646
ltibia 21.1773
lfoot -18.3159 -18.3342
ltoes 18.9957
2638
root 20.1212 23.4357 10.9119 -3.33159 7.81546 0.49369
lowerback 6.89515 -1.19827 -3.21061
upperback 4.68134 -1.75999 2.69459
thorax 1.1637 -0.993119 4.6939
lowerneck -10.4876 -1.93492 -9.775
upperneck 39.8551 -1.54177 3.56377
head 16.1073 -1.60419 3.08019
rclavicle -7.95139e-015 7.15625e-015
rhumerus -38.0724 -16.7908 -74.5242
rradius 24.3211
rwrist -4.20139
rhand -20.4732 11.9108
rfingers 7.12502
rthumb 5.88293 -17.9875
lclavicle -7.95139e-015 7.15625e-015
lhumerus -36.8541 6.97306 83.5736
lradius 34.127
lwrist 5.15446
lhand -18.8442 20.0371
lfingers 7.12502
lthumb 7.45554 49.8857
rfemur -34.676 -11.6494 17.2353
rtibia 35.484
rfoot 9.83438 -6.72925
rtoes 10.428
lfemur 11.5455 -1.44866 -21.1202
ltibia 21.292
lfoot -18.3436 -18.5916
ltoes 18.481
2639
root 20.0949 23.4291 11.0052 -3.25908 8.05423 0.431545
lowerback 6.82706 -1.22749 -3.14374
upperback 4.61461 -1.79349 2.69157
thorax 1.1329 -1.00629 4.65347
lowerneck -10.3157 -1.94191 -9.79875
upperneck 39.6987 -1.66485 3.81783
head 15.9938 -1.62094 3.17184
rclavicle -2.20651e-014 7.95139e-015
rhumerus -38.1916 -16.9168 -74.5589
rradius 24.3598
rwrist -4.03584
rhand -20.4385 11.3397
rfingers 7.12502
rthumb 5.91645 -18.5577
lclavicle -2.20651e-014 7.95139e-015
lhumerus -36.9775 7.2254 83.4901
lradius 33.8172
lwrist 5.09102
lhand -19.0358 19.5392
lfingers 7.12502
lthumb 7.27059 49.3943
rfemur -34.2187 -11.7837 17.3904
rtibia 35.4954
rfoot 9.20569 -6.54038
rtoes 14.9095
lfemur 11.715 -1.37971 -20.8222
ltibia 21.3924
lfoot -18.3424 -18.9558
ltoes 17.5544
2640
root 20.0617 23.4294 11.0986 -3.11322 8.22289 0.497301
lowerback 6.80793 -1.1729 -3.33087
upperback 4.50339 -1.72989 2.72353
thorax 1.02925 -0.974649 4.79093
lowerneck -10.362 -2.04333 -9.85604
upperneck 39.6952 -1.79956 3.83153
head 16.0193 -1.68249 3.16709
rclavicle 9.54166e-015 6.36111e-015
rhumerus -38.2342 -17.0069 -74.4796
rradius 24.1938
rwrist -3.98744
rhand -20.5589 11.4317
rfingers 7.12502
rthumb 5.80027 -18.4689
lclavicle 9.54166e-015 6.36111e-015
lhumerus -37.009 7.31293 83.5164
lradius 33.523
lwrist 4.93696
lhand -18.9937 19.2795
lfingers 7.12502
lthumb 7.31122 49.1332
rfemur -34.1091 -11.6907 17.5216
rtibia 35.6523
rfoot 8.63805 -5.50038
rtoes 13.434
lfemur 11.8636 -1.46861 -20.6896
ltibia 21.4197
lfoot -18.1356 -19.1246
ltoes 16.7353
2641
root 20.0344 23.434 11.1903 -2.91733 8.47055 0.673218
lowerback 6.76665 -1.16168 -3.58049
upperback 4.38746 -1.72696 2.7294
thorax 0.940684 -0.974317 4.93933
lowerneck -10.417 -2.14035 -9.96617
upperneck 39.7248 -1.92975 3.88839
head 16.0657 -1.74552 3.19265
rclavicle 1.60022e-014 0
rhumerus -38.262 -17.037 -74.3896
rradius 24.0579
rwrist -3.90594
rhand -20.51 11.5377
rfingers 7.12502
rthumb 5.84744 -18.3617
lclavicle 1.60022e-014 0
lhumerus -37.0147 7.39208 83.5724
lradius 33.3795
lwrist 4.88287
lhand -19.0123 19.6827
lfingers 7.12502
lthumb 7.29332 49.5371
rfemur -34.0124 -12.0774 17.6214
rtibia 35.8718
rfoot 7.58849 -3.98775
rtoes 10.8476
lfemur 11.961 -1.72222 -20.7369
ltibia 21.3991
lfoot -17.8039 -19.1934
ltoes 16.8169
2642
root 20.0097 23.4314 11.2849 -2.72239 8.72334 0.732099
lowerback 6.69864 -1.24454 -3.74462
upperback 4.23173 -1.84423 2.80575
thorax 0.839151 -1.03206 5.11918
lowerneck -10.4555 -2.14571 -10.0607
upperneck 39.8984 -1.90638 3.88529
head 16.1681 -1.75522 3.21809
rclavicle 9.93923e-016 -1.35174e-014
rhumerus -38.3009 -17.0283 -74.2281
rradius 23.9609
rwrist -3.55206
rhand -20.2658 11.219
rfingers 7.12502
rthumb 6.0832 -18.6736
lclavicle 9.93923e-016 -1.35174e-014
lhumerus -37.2357 7.76551 83.5919
lradius 33.3174
lwrist 4.88911
lhand -19.225 19.8139
lfingers 7.12502
lthumb 7.08792 49.6752
rfemur -33.7902 -12.5826 17.8477
rtibia 36.0648
rfoot 6.21716 -2.80876
rtoes 8.32562
lfemur 12.0411 -1.88511 -20.6316
ltibia 21.3908
lfoot -17.5389 -19.3119
ltoes 16.4531
